<mxfile host="Electron" agent="Mozilla/5.0 (Windows NT 10.0; Win64; x64) AppleWebKit/537.36 (KHTML, like Gecko) draw.io/24.7.8 Chrome/128.0.6613.36 Electron/32.0.1 Safari/537.36" version="24.7.8">
  <diagram name="Page-1" id="idqTM0GRG3qgkb9HPorG">
    <mxGraphModel dx="819" dy="478" grid="1" gridSize="10" guides="1" tooltips="1" connect="1" arrows="1" fold="1" page="1" pageScale="1" pageWidth="850" pageHeight="1100" math="0" shadow="0">
      <root>
        <mxCell id="0" />
        <mxCell id="1" parent="0" />
        <mxCell id="goQKcYj-rlJtsaqqlP_c-53" value="" style="rounded=0;whiteSpace=wrap;html=1;fillColor=none;" vertex="1" parent="1">
          <mxGeometry x="10" y="50" width="930" height="550" as="geometry" />
        </mxCell>
        <mxCell id="goQKcYj-rlJtsaqqlP_c-1" value="1" style="swimlane;fontStyle=0;childLayout=stackLayout;horizontal=1;startSize=20;fillColor=#fff2cc;horizontalStack=0;resizeParent=1;resizeParentMax=0;resizeLast=0;collapsible=0;marginBottom=0;swimlaneFillColor=#ffffff;rounded=1;strokeColor=#d6b656;arcSize=20;" vertex="1" parent="1">
          <mxGeometry x="310" y="90" width="100" height="80" as="geometry" />
        </mxCell>
        <mxCell id="goQKcYj-rlJtsaqqlP_c-2" value="Level Load" style="text;html=1;align=center;verticalAlign=middle;whiteSpace=wrap;rounded=0;fillColor=#FFF2CC;" vertex="1" parent="goQKcYj-rlJtsaqqlP_c-1">
          <mxGeometry y="20" width="100" height="40" as="geometry" />
        </mxCell>
        <mxCell id="goQKcYj-rlJtsaqqlP_c-3" value="&amp;nbsp;" style="text;html=1;align=center;verticalAlign=middle;whiteSpace=wrap;rounded=1;fillColor=#fff2cc;strokeColor=#d6b656;arcSize=13;" vertex="1" parent="goQKcYj-rlJtsaqqlP_c-1">
          <mxGeometry y="60" width="100" height="20" as="geometry" />
        </mxCell>
        <mxCell id="goQKcYj-rlJtsaqqlP_c-4" value="" style="endArrow=none;html=1;rounded=0;exitX=0;exitY=0;exitDx=0;exitDy=0;entryX=1;entryY=0;entryDx=0;entryDy=0;fillColor=#fff2cc;strokeColor=#d6b656;" edge="1" parent="goQKcYj-rlJtsaqqlP_c-1" source="goQKcYj-rlJtsaqqlP_c-3" target="goQKcYj-rlJtsaqqlP_c-3">
          <mxGeometry width="50" height="50" relative="1" as="geometry">
            <mxPoint x="40" y="155" as="sourcePoint" />
            <mxPoint x="90" y="105" as="targetPoint" />
          </mxGeometry>
        </mxCell>
        <mxCell id="goQKcYj-rlJtsaqqlP_c-58" style="edgeStyle=orthogonalEdgeStyle;rounded=0;orthogonalLoop=1;jettySize=auto;html=1;exitX=0.75;exitY=0;exitDx=0;exitDy=0;" edge="1" parent="goQKcYj-rlJtsaqqlP_c-1" source="goQKcYj-rlJtsaqqlP_c-3" target="goQKcYj-rlJtsaqqlP_c-3">
          <mxGeometry relative="1" as="geometry" />
        </mxCell>
        <mxCell id="goQKcYj-rlJtsaqqlP_c-5" style="edgeStyle=orthogonalEdgeStyle;rounded=0;orthogonalLoop=1;jettySize=auto;html=1;exitX=0.988;exitY=0.072;exitDx=0;exitDy=0;entryX=0;entryY=0.5;entryDx=0;entryDy=0;exitPerimeter=0;" edge="1" parent="1" source="goQKcYj-rlJtsaqqlP_c-11" target="goQKcYj-rlJtsaqqlP_c-2">
          <mxGeometry relative="1" as="geometry">
            <Array as="points">
              <mxPoint x="129" y="130" />
            </Array>
          </mxGeometry>
        </mxCell>
        <mxCell id="goQKcYj-rlJtsaqqlP_c-6" value="Selects Level" style="edgeLabel;html=1;align=center;verticalAlign=middle;resizable=0;points=[];" vertex="1" connectable="0" parent="goQKcYj-rlJtsaqqlP_c-5">
          <mxGeometry x="0.0178" y="1" relative="1" as="geometry">
            <mxPoint y="-11" as="offset" />
          </mxGeometry>
        </mxCell>
        <mxCell id="goQKcYj-rlJtsaqqlP_c-7" style="edgeStyle=orthogonalEdgeStyle;rounded=0;orthogonalLoop=1;jettySize=auto;html=1;exitX=1.02;exitY=0.291;exitDx=0;exitDy=0;entryX=0;entryY=0.5;entryDx=0;entryDy=0;exitPerimeter=0;" edge="1" parent="1" source="goQKcYj-rlJtsaqqlP_c-11" target="goQKcYj-rlJtsaqqlP_c-22">
          <mxGeometry relative="1" as="geometry">
            <Array as="points">
              <mxPoint x="132" y="170" />
              <mxPoint x="220" y="170" />
              <mxPoint x="220" y="240" />
            </Array>
          </mxGeometry>
        </mxCell>
        <mxCell id="goQKcYj-rlJtsaqqlP_c-8" value="Select Tower" style="edgeLabel;html=1;align=center;verticalAlign=middle;resizable=0;points=[];" vertex="1" connectable="0" parent="goQKcYj-rlJtsaqqlP_c-7">
          <mxGeometry x="0.3557" relative="1" as="geometry">
            <mxPoint x="34" y="-10" as="offset" />
          </mxGeometry>
        </mxCell>
        <mxCell id="goQKcYj-rlJtsaqqlP_c-9" style="edgeStyle=orthogonalEdgeStyle;rounded=0;orthogonalLoop=1;jettySize=auto;html=1;exitX=1;exitY=0.5;exitDx=0;exitDy=0;entryX=0;entryY=0;entryDx=0;entryDy=0;" edge="1" parent="1" source="goQKcYj-rlJtsaqqlP_c-11" target="goQKcYj-rlJtsaqqlP_c-28">
          <mxGeometry relative="1" as="geometry">
            <Array as="points">
              <mxPoint x="130" y="280" />
              <mxPoint x="220" y="280" />
              <mxPoint x="220" y="320" />
            </Array>
          </mxGeometry>
        </mxCell>
        <mxCell id="goQKcYj-rlJtsaqqlP_c-10" value="Clicks Start Round" style="edgeLabel;html=1;align=center;verticalAlign=middle;resizable=0;points=[];" vertex="1" connectable="0" parent="goQKcYj-rlJtsaqqlP_c-9">
          <mxGeometry x="0.2851" y="-1" relative="1" as="geometry">
            <mxPoint x="-39" y="-42" as="offset" />
          </mxGeometry>
        </mxCell>
        <mxCell id="goQKcYj-rlJtsaqqlP_c-11" value="Player" style="html=1;dashed=0;whiteSpace=wrap;" vertex="1" parent="1">
          <mxGeometry x="20" y="100" width="110" height="250" as="geometry" />
        </mxCell>
        <mxCell id="goQKcYj-rlJtsaqqlP_c-12" style="edgeStyle=orthogonalEdgeStyle;rounded=0;orthogonalLoop=1;jettySize=auto;html=1;exitX=0;exitY=0.5;exitDx=0;exitDy=0;entryX=1;entryY=0.75;entryDx=0;entryDy=0;" edge="1" parent="1" source="goQKcYj-rlJtsaqqlP_c-14" target="goQKcYj-rlJtsaqqlP_c-28">
          <mxGeometry relative="1" as="geometry">
            <mxPoint x="460" y="410" as="targetPoint" />
            <Array as="points">
              <mxPoint x="610" y="315" />
              <mxPoint x="610" y="357" />
            </Array>
          </mxGeometry>
        </mxCell>
        <mxCell id="goQKcYj-rlJtsaqqlP_c-13" value="Level Difficultly Table" style="edgeLabel;html=1;align=center;verticalAlign=middle;resizable=0;points=[];" vertex="1" connectable="0" parent="goQKcYj-rlJtsaqqlP_c-12">
          <mxGeometry x="0.5956" y="1" relative="1" as="geometry">
            <mxPoint x="19" y="-9" as="offset" />
          </mxGeometry>
        </mxCell>
        <mxCell id="goQKcYj-rlJtsaqqlP_c-14" value="Game Save Data" style="html=1;dashed=0;whiteSpace=wrap;" vertex="1" parent="1">
          <mxGeometry x="820" y="100" width="110" height="230" as="geometry" />
        </mxCell>
        <mxCell id="goQKcYj-rlJtsaqqlP_c-15" style="edgeStyle=orthogonalEdgeStyle;rounded=0;orthogonalLoop=1;jettySize=auto;html=1;entryX=1;entryY=0.5;entryDx=0;entryDy=0;exitX=0;exitY=0;exitDx=0;exitDy=0;" edge="1" parent="1" source="goQKcYj-rlJtsaqqlP_c-14" target="goQKcYj-rlJtsaqqlP_c-2">
          <mxGeometry relative="1" as="geometry">
            <mxPoint x="720" y="130" as="sourcePoint" />
            <mxPoint x="460" y="345" as="targetPoint" />
            <Array as="points">
              <mxPoint x="820" y="130" />
            </Array>
          </mxGeometry>
        </mxCell>
        <mxCell id="goQKcYj-rlJtsaqqlP_c-16" value="Level Data" style="edgeLabel;html=1;align=center;verticalAlign=middle;resizable=0;points=[];" vertex="1" connectable="0" parent="goQKcYj-rlJtsaqqlP_c-15">
          <mxGeometry x="-0.0709" y="-2" relative="1" as="geometry">
            <mxPoint x="-7" y="-11" as="offset" />
          </mxGeometry>
        </mxCell>
        <mxCell id="goQKcYj-rlJtsaqqlP_c-17" value="" style="swimlane;startSize=0;fillColor=#f5f5f5;gradientColor=#b3b3b3;strokeColor=#666666;" vertex="1" parent="1">
          <mxGeometry x="500" y="140" width="200" height="40" as="geometry" />
        </mxCell>
        <mxCell id="goQKcYj-rlJtsaqqlP_c-18" value="" style="rounded=0;whiteSpace=wrap;html=1;fillColor=#f5f5f5;gradientColor=#b3b3b3;strokeColor=#666666;" vertex="1" parent="goQKcYj-rlJtsaqqlP_c-17">
          <mxGeometry width="50" height="40" as="geometry" />
        </mxCell>
        <mxCell id="goQKcYj-rlJtsaqqlP_c-19" value="Current Level Data" style="text;html=1;align=center;verticalAlign=middle;whiteSpace=wrap;rounded=0;" vertex="1" parent="goQKcYj-rlJtsaqqlP_c-17">
          <mxGeometry x="50" width="150" height="40" as="geometry" />
        </mxCell>
        <mxCell id="goQKcYj-rlJtsaqqlP_c-20" style="edgeStyle=orthogonalEdgeStyle;rounded=0;orthogonalLoop=1;jettySize=auto;html=1;entryX=0;entryY=0.5;entryDx=0;entryDy=0;" edge="1" parent="1" source="goQKcYj-rlJtsaqqlP_c-3" target="goQKcYj-rlJtsaqqlP_c-18">
          <mxGeometry relative="1" as="geometry">
            <mxPoint x="360" y="280" as="targetPoint" />
          </mxGeometry>
        </mxCell>
        <mxCell id="goQKcYj-rlJtsaqqlP_c-21" value="2" style="swimlane;fontStyle=0;childLayout=stackLayout;horizontal=1;startSize=20;fillColor=#fff2cc;horizontalStack=0;resizeParent=1;resizeParentMax=0;resizeLast=0;collapsible=0;marginBottom=0;swimlaneFillColor=#ffffff;rounded=1;strokeColor=#d6b656;arcSize=20;" vertex="1" parent="1">
          <mxGeometry x="310" y="200" width="100" height="80" as="geometry" />
        </mxCell>
        <mxCell id="goQKcYj-rlJtsaqqlP_c-22" value="Purchace Tower" style="text;html=1;align=center;verticalAlign=middle;whiteSpace=wrap;rounded=0;" vertex="1" parent="goQKcYj-rlJtsaqqlP_c-21">
          <mxGeometry y="20" width="100" height="40" as="geometry" />
        </mxCell>
        <mxCell id="goQKcYj-rlJtsaqqlP_c-23" value="&amp;nbsp;" style="text;html=1;align=center;verticalAlign=middle;whiteSpace=wrap;rounded=1;fillColor=#fff2cc;strokeColor=#d6b656;arcSize=13;" vertex="1" parent="goQKcYj-rlJtsaqqlP_c-21">
          <mxGeometry y="60" width="100" height="20" as="geometry" />
        </mxCell>
        <mxCell id="goQKcYj-rlJtsaqqlP_c-24" value="" style="endArrow=none;html=1;rounded=0;exitX=0;exitY=0;exitDx=0;exitDy=0;entryX=1;entryY=0;entryDx=0;entryDy=0;fillColor=#fff2cc;strokeColor=#d6b656;" edge="1" parent="goQKcYj-rlJtsaqqlP_c-21" source="goQKcYj-rlJtsaqqlP_c-23" target="goQKcYj-rlJtsaqqlP_c-23">
          <mxGeometry width="50" height="50" relative="1" as="geometry">
            <mxPoint x="40" y="155" as="sourcePoint" />
            <mxPoint x="90" y="105" as="targetPoint" />
          </mxGeometry>
        </mxCell>
        <mxCell id="goQKcYj-rlJtsaqqlP_c-25" style="edgeStyle=orthogonalEdgeStyle;rounded=0;orthogonalLoop=1;jettySize=auto;html=1;exitX=0.25;exitY=1;exitDx=0;exitDy=0;entryX=1;entryY=0.5;entryDx=0;entryDy=0;" edge="1" parent="1" source="goQKcYj-rlJtsaqqlP_c-18" target="goQKcYj-rlJtsaqqlP_c-22">
          <mxGeometry relative="1" as="geometry" />
        </mxCell>
        <mxCell id="goQKcYj-rlJtsaqqlP_c-26" value="Game State Data" style="edgeLabel;html=1;align=center;verticalAlign=middle;resizable=0;points=[];" vertex="1" connectable="0" parent="goQKcYj-rlJtsaqqlP_c-25">
          <mxGeometry x="0.2896" y="-3" relative="1" as="geometry">
            <mxPoint x="-8" y="-7" as="offset" />
          </mxGeometry>
        </mxCell>
        <mxCell id="goQKcYj-rlJtsaqqlP_c-27" value="3" style="swimlane;fontStyle=0;childLayout=stackLayout;horizontal=1;startSize=20;fillColor=#fff2cc;horizontalStack=0;resizeParent=1;resizeParentMax=0;resizeLast=0;collapsible=0;marginBottom=0;swimlaneFillColor=#ffffff;rounded=1;strokeColor=#d6b656;arcSize=20;" vertex="1" parent="1">
          <mxGeometry x="310" y="300" width="100" height="90" as="geometry" />
        </mxCell>
        <mxCell id="goQKcYj-rlJtsaqqlP_c-28" value="Start Round" style="text;html=1;align=center;verticalAlign=middle;whiteSpace=wrap;rounded=0;" vertex="1" parent="goQKcYj-rlJtsaqqlP_c-27">
          <mxGeometry y="20" width="100" height="50" as="geometry" />
        </mxCell>
        <mxCell id="goQKcYj-rlJtsaqqlP_c-29" value="&amp;nbsp;" style="text;html=1;align=center;verticalAlign=middle;whiteSpace=wrap;rounded=1;fillColor=#fff2cc;strokeColor=#d6b656;arcSize=13;" vertex="1" parent="goQKcYj-rlJtsaqqlP_c-27">
          <mxGeometry y="70" width="100" height="20" as="geometry" />
        </mxCell>
        <mxCell id="goQKcYj-rlJtsaqqlP_c-30" value="" style="endArrow=none;html=1;rounded=0;exitX=0;exitY=0;exitDx=0;exitDy=0;entryX=1;entryY=0;entryDx=0;entryDy=0;fillColor=#fff2cc;strokeColor=#d6b656;" edge="1" parent="goQKcYj-rlJtsaqqlP_c-27" source="goQKcYj-rlJtsaqqlP_c-29" target="goQKcYj-rlJtsaqqlP_c-29">
          <mxGeometry width="50" height="50" relative="1" as="geometry">
            <mxPoint x="40" y="155" as="sourcePoint" />
            <mxPoint x="90" y="105" as="targetPoint" />
          </mxGeometry>
        </mxCell>
        <mxCell id="goQKcYj-rlJtsaqqlP_c-31" style="edgeStyle=orthogonalEdgeStyle;rounded=0;orthogonalLoop=1;jettySize=auto;html=1;exitX=1;exitY=1;exitDx=0;exitDy=0;entryX=0;entryY=1;entryDx=0;entryDy=0;" edge="1" parent="1" source="goQKcYj-rlJtsaqqlP_c-22" target="goQKcYj-rlJtsaqqlP_c-19">
          <mxGeometry relative="1" as="geometry">
            <Array as="points">
              <mxPoint x="550" y="260" />
            </Array>
          </mxGeometry>
        </mxCell>
        <mxCell id="goQKcYj-rlJtsaqqlP_c-32" value="Tower Data" style="edgeLabel;html=1;align=center;verticalAlign=middle;resizable=0;points=[];" vertex="1" connectable="0" parent="goQKcYj-rlJtsaqqlP_c-31">
          <mxGeometry x="-0.297" y="2" relative="1" as="geometry">
            <mxPoint x="-7" y="12" as="offset" />
          </mxGeometry>
        </mxCell>
        <mxCell id="goQKcYj-rlJtsaqqlP_c-33" style="edgeStyle=orthogonalEdgeStyle;rounded=0;orthogonalLoop=1;jettySize=auto;html=1;exitX=0.25;exitY=1;exitDx=0;exitDy=0;entryX=1;entryY=0.25;entryDx=0;entryDy=0;" edge="1" parent="1" source="goQKcYj-rlJtsaqqlP_c-19" target="goQKcYj-rlJtsaqqlP_c-28">
          <mxGeometry relative="1" as="geometry" />
        </mxCell>
        <mxCell id="goQKcYj-rlJtsaqqlP_c-34" value="Old Round Data" style="edgeLabel;html=1;align=center;verticalAlign=middle;resizable=0;points=[];" vertex="1" connectable="0" parent="goQKcYj-rlJtsaqqlP_c-33">
          <mxGeometry x="0.6414" y="-2" relative="1" as="geometry">
            <mxPoint x="1" y="-8" as="offset" />
          </mxGeometry>
        </mxCell>
        <mxCell id="goQKcYj-rlJtsaqqlP_c-35" value="5" style="swimlane;fontStyle=0;childLayout=stackLayout;horizontal=1;startSize=20;fillColor=#fff2cc;horizontalStack=0;resizeParent=1;resizeParentMax=0;resizeLast=0;collapsible=0;marginBottom=0;swimlaneFillColor=#ffffff;rounded=1;strokeColor=#d6b656;arcSize=20;" vertex="1" parent="1">
          <mxGeometry x="390" y="510" width="100" height="80" as="geometry" />
        </mxCell>
        <mxCell id="goQKcYj-rlJtsaqqlP_c-36" value="Unload Level" style="text;html=1;align=center;verticalAlign=middle;whiteSpace=wrap;rounded=0;fillColor=#FFF2CC;" vertex="1" parent="goQKcYj-rlJtsaqqlP_c-35">
          <mxGeometry y="20" width="100" height="40" as="geometry" />
        </mxCell>
        <mxCell id="goQKcYj-rlJtsaqqlP_c-37" value="&amp;nbsp;" style="text;html=1;align=center;verticalAlign=middle;whiteSpace=wrap;rounded=1;fillColor=#fff2cc;strokeColor=#d6b656;arcSize=13;" vertex="1" parent="goQKcYj-rlJtsaqqlP_c-35">
          <mxGeometry y="60" width="100" height="20" as="geometry" />
        </mxCell>
        <mxCell id="goQKcYj-rlJtsaqqlP_c-38" value="" style="endArrow=none;html=1;rounded=0;exitX=0;exitY=0;exitDx=0;exitDy=0;entryX=1;entryY=0;entryDx=0;entryDy=0;fillColor=#fff2cc;strokeColor=#d6b656;" edge="1" parent="goQKcYj-rlJtsaqqlP_c-35" source="goQKcYj-rlJtsaqqlP_c-37" target="goQKcYj-rlJtsaqqlP_c-37">
          <mxGeometry width="50" height="50" relative="1" as="geometry">
            <mxPoint x="40" y="155" as="sourcePoint" />
            <mxPoint x="90" y="105" as="targetPoint" />
          </mxGeometry>
        </mxCell>
        <mxCell id="goQKcYj-rlJtsaqqlP_c-39" value="4" style="swimlane;fontStyle=0;childLayout=stackLayout;horizontal=1;startSize=20;fillColor=#fff2cc;horizontalStack=0;resizeParent=1;resizeParentMax=0;resizeLast=0;collapsible=0;marginBottom=0;swimlaneFillColor=#ffffff;rounded=1;strokeColor=#d6b656;arcSize=20;" vertex="1" parent="1">
          <mxGeometry x="130" y="430" width="100" height="80" as="geometry" />
        </mxCell>
        <mxCell id="goQKcYj-rlJtsaqqlP_c-40" value="Spawn Enemies" style="text;html=1;align=center;verticalAlign=middle;whiteSpace=wrap;rounded=0;" vertex="1" parent="goQKcYj-rlJtsaqqlP_c-39">
          <mxGeometry y="20" width="100" height="40" as="geometry" />
        </mxCell>
        <mxCell id="goQKcYj-rlJtsaqqlP_c-41" value="&amp;nbsp;" style="text;html=1;align=center;verticalAlign=middle;whiteSpace=wrap;rounded=1;fillColor=#fff2cc;strokeColor=#d6b656;arcSize=13;" vertex="1" parent="goQKcYj-rlJtsaqqlP_c-39">
          <mxGeometry y="60" width="100" height="20" as="geometry" />
        </mxCell>
        <mxCell id="goQKcYj-rlJtsaqqlP_c-42" value="" style="endArrow=none;html=1;rounded=0;exitX=0;exitY=0;exitDx=0;exitDy=0;entryX=1;entryY=0;entryDx=0;entryDy=0;fillColor=#fff2cc;strokeColor=#d6b656;" edge="1" parent="goQKcYj-rlJtsaqqlP_c-39" source="goQKcYj-rlJtsaqqlP_c-41" target="goQKcYj-rlJtsaqqlP_c-41">
          <mxGeometry width="50" height="50" relative="1" as="geometry">
            <mxPoint x="40" y="155" as="sourcePoint" />
            <mxPoint x="90" y="105" as="targetPoint" />
          </mxGeometry>
        </mxCell>
        <mxCell id="goQKcYj-rlJtsaqqlP_c-43" style="edgeStyle=orthogonalEdgeStyle;rounded=0;orthogonalLoop=1;jettySize=auto;html=1;exitX=0;exitY=0.75;exitDx=0;exitDy=0;entryX=0.5;entryY=0;entryDx=0;entryDy=0;" edge="1" parent="1" source="goQKcYj-rlJtsaqqlP_c-28" target="goQKcYj-rlJtsaqqlP_c-39">
          <mxGeometry relative="1" as="geometry">
            <Array as="points">
              <mxPoint x="180" y="358" />
            </Array>
          </mxGeometry>
        </mxCell>
        <mxCell id="goQKcYj-rlJtsaqqlP_c-44" value="Enemy Class" style="edgeLabel;html=1;align=center;verticalAlign=middle;resizable=0;points=[];" vertex="1" connectable="0" parent="goQKcYj-rlJtsaqqlP_c-43">
          <mxGeometry x="-0.0008" relative="1" as="geometry">
            <mxPoint x="31" y="-8" as="offset" />
          </mxGeometry>
        </mxCell>
        <mxCell id="goQKcYj-rlJtsaqqlP_c-45" style="edgeStyle=orthogonalEdgeStyle;rounded=0;orthogonalLoop=1;jettySize=auto;html=1;exitX=1;exitY=0.5;exitDx=0;exitDy=0;entryX=0.456;entryY=1.045;entryDx=0;entryDy=0;entryPerimeter=0;" edge="1" parent="1" source="goQKcYj-rlJtsaqqlP_c-40" target="goQKcYj-rlJtsaqqlP_c-19">
          <mxGeometry relative="1" as="geometry" />
        </mxCell>
        <mxCell id="goQKcYj-rlJtsaqqlP_c-46" value="Enemy Stats" style="edgeLabel;html=1;align=center;verticalAlign=middle;resizable=0;points=[];" vertex="1" connectable="0" parent="goQKcYj-rlJtsaqqlP_c-45">
          <mxGeometry x="-0.714" y="1" relative="1" as="geometry">
            <mxPoint y="-9" as="offset" />
          </mxGeometry>
        </mxCell>
        <mxCell id="goQKcYj-rlJtsaqqlP_c-47" style="edgeStyle=orthogonalEdgeStyle;rounded=0;orthogonalLoop=1;jettySize=auto;html=1;exitX=1;exitY=0.5;exitDx=0;exitDy=0;entryX=0.75;entryY=1;entryDx=0;entryDy=0;" edge="1" parent="1" source="goQKcYj-rlJtsaqqlP_c-29" target="goQKcYj-rlJtsaqqlP_c-19">
          <mxGeometry relative="1" as="geometry" />
        </mxCell>
        <mxCell id="goQKcYj-rlJtsaqqlP_c-48" value="New Round Data" style="edgeLabel;html=1;align=center;verticalAlign=middle;resizable=0;points=[];" vertex="1" connectable="0" parent="goQKcYj-rlJtsaqqlP_c-47">
          <mxGeometry x="-0.5606" y="2" relative="1" as="geometry">
            <mxPoint x="51" y="-8" as="offset" />
          </mxGeometry>
        </mxCell>
        <mxCell id="goQKcYj-rlJtsaqqlP_c-49" style="edgeStyle=orthogonalEdgeStyle;rounded=0;orthogonalLoop=1;jettySize=auto;html=1;exitX=1;exitY=1;exitDx=0;exitDy=0;entryX=1;entryY=0.5;entryDx=0;entryDy=0;" edge="1" parent="1" source="goQKcYj-rlJtsaqqlP_c-19" target="goQKcYj-rlJtsaqqlP_c-36">
          <mxGeometry relative="1" as="geometry" />
        </mxCell>
        <mxCell id="goQKcYj-rlJtsaqqlP_c-50" value="Level End" style="edgeLabel;html=1;align=center;verticalAlign=middle;resizable=0;points=[];" vertex="1" connectable="0" parent="goQKcYj-rlJtsaqqlP_c-49">
          <mxGeometry x="0.495" relative="1" as="geometry">
            <mxPoint y="-10" as="offset" />
          </mxGeometry>
        </mxCell>
        <mxCell id="goQKcYj-rlJtsaqqlP_c-51" style="edgeStyle=orthogonalEdgeStyle;rounded=0;orthogonalLoop=1;jettySize=auto;html=1;exitX=0;exitY=0.5;exitDx=0;exitDy=0;" edge="1" parent="1" source="goQKcYj-rlJtsaqqlP_c-36" target="goQKcYj-rlJtsaqqlP_c-11">
          <mxGeometry relative="1" as="geometry" />
        </mxCell>
        <mxCell id="goQKcYj-rlJtsaqqlP_c-52" value="Level Select Screen" style="edgeLabel;html=1;align=center;verticalAlign=middle;resizable=0;points=[];" vertex="1" connectable="0" parent="goQKcYj-rlJtsaqqlP_c-51">
          <mxGeometry x="-0.3335" y="-1" relative="1" as="geometry">
            <mxPoint as="offset" />
          </mxGeometry>
        </mxCell>
        <mxCell id="goQKcYj-rlJtsaqqlP_c-54" value="Diagram 0" style="text;html=1;align=center;verticalAlign=middle;resizable=0;points=[];autosize=1;strokeColor=none;fillColor=none;fontSize=15;" vertex="1" parent="1">
          <mxGeometry x="10" y="50" width="90" height="30" as="geometry" />
        </mxCell>
        <mxCell id="goQKcYj-rlJtsaqqlP_c-55" value="" style="rounded=0;whiteSpace=wrap;html=1;fillColor=none;" vertex="1" parent="1">
          <mxGeometry x="10" y="610" width="930" height="310" as="geometry" />
        </mxCell>
        <mxCell id="goQKcYj-rlJtsaqqlP_c-56" value="Diagram for Load Level (1)" style="text;html=1;align=center;verticalAlign=middle;resizable=0;points=[];autosize=1;strokeColor=none;fillColor=none;fontSize=15;" vertex="1" parent="1">
          <mxGeometry x="10" y="610" width="200" height="30" as="geometry" />
        </mxCell>
        <mxCell id="goQKcYj-rlJtsaqqlP_c-59" value="" style="rounded=0;whiteSpace=wrap;html=1;fillColor=#f5f5f5;gradientColor=#b3b3b3;strokeColor=#666666;" vertex="1" parent="1">
          <mxGeometry x="560" y="640" width="50" height="40" as="geometry" />
        </mxCell>
        <mxCell id="goQKcYj-rlJtsaqqlP_c-60" value="Current Level Data" style="text;html=1;align=center;verticalAlign=middle;whiteSpace=wrap;rounded=0;strokeColor=default;" vertex="1" parent="1">
          <mxGeometry x="610" y="640" width="150" height="40" as="geometry" />
        </mxCell>
        <mxCell id="goQKcYj-rlJtsaqqlP_c-61" value="Player" style="html=1;dashed=0;whiteSpace=wrap;" vertex="1" parent="1">
          <mxGeometry x="40" y="640" width="110" height="250" as="geometry" />
        </mxCell>
        <mxCell id="goQKcYj-rlJtsaqqlP_c-62" value="Game Save Data" style="html=1;dashed=0;whiteSpace=wrap;" vertex="1" parent="1">
          <mxGeometry x="810" y="640" width="110" height="230" as="geometry" />
        </mxCell>
        <mxCell id="goQKcYj-rlJtsaqqlP_c-63" value="1.1" style="swimlane;fontStyle=0;childLayout=stackLayout;horizontal=1;startSize=20;fillColor=#fff2cc;horizontalStack=0;resizeParent=1;resizeParentMax=0;resizeLast=0;collapsible=0;marginBottom=0;swimlaneFillColor=#ffffff;rounded=1;strokeColor=#d6b656;arcSize=20;" vertex="1" parent="1">
          <mxGeometry x="240" y="800" width="100" height="80" as="geometry" />
        </mxCell>
        <mxCell id="goQKcYj-rlJtsaqqlP_c-64" value="Load Map" style="text;html=1;align=center;verticalAlign=middle;whiteSpace=wrap;rounded=0;" vertex="1" parent="goQKcYj-rlJtsaqqlP_c-63">
          <mxGeometry y="20" width="100" height="40" as="geometry" />
        </mxCell>
        <mxCell id="goQKcYj-rlJtsaqqlP_c-65" value="&amp;nbsp;" style="text;html=1;align=center;verticalAlign=middle;whiteSpace=wrap;rounded=1;fillColor=#fff2cc;strokeColor=#d6b656;arcSize=13;" vertex="1" parent="goQKcYj-rlJtsaqqlP_c-63">
          <mxGeometry y="60" width="100" height="20" as="geometry" />
        </mxCell>
        <mxCell id="goQKcYj-rlJtsaqqlP_c-66" value="" style="endArrow=none;html=1;rounded=0;exitX=0;exitY=0;exitDx=0;exitDy=0;entryX=1;entryY=0;entryDx=0;entryDy=0;fillColor=#fff2cc;strokeColor=#d6b656;" edge="1" parent="goQKcYj-rlJtsaqqlP_c-63" source="goQKcYj-rlJtsaqqlP_c-65" target="goQKcYj-rlJtsaqqlP_c-65">
          <mxGeometry width="50" height="50" relative="1" as="geometry">
            <mxPoint x="40" y="155" as="sourcePoint" />
            <mxPoint x="90" y="105" as="targetPoint" />
          </mxGeometry>
        </mxCell>
        <mxCell id="goQKcYj-rlJtsaqqlP_c-68" value="1.2" style="swimlane;fontStyle=0;childLayout=stackLayout;horizontal=1;startSize=20;fillColor=#fff2cc;horizontalStack=0;resizeParent=1;resizeParentMax=0;resizeLast=0;collapsible=0;marginBottom=0;swimlaneFillColor=#ffffff;rounded=1;strokeColor=#d6b656;arcSize=20;" vertex="1" parent="1">
          <mxGeometry x="420" y="800" width="100" height="80" as="geometry" />
        </mxCell>
        <mxCell id="goQKcYj-rlJtsaqqlP_c-69" value="Select Difficulty" style="text;html=1;align=center;verticalAlign=middle;whiteSpace=wrap;rounded=0;" vertex="1" parent="goQKcYj-rlJtsaqqlP_c-68">
          <mxGeometry y="20" width="100" height="40" as="geometry" />
        </mxCell>
        <mxCell id="goQKcYj-rlJtsaqqlP_c-70" value="&amp;nbsp;" style="text;html=1;align=center;verticalAlign=middle;whiteSpace=wrap;rounded=1;fillColor=#fff2cc;strokeColor=#d6b656;arcSize=13;" vertex="1" parent="goQKcYj-rlJtsaqqlP_c-68">
          <mxGeometry y="60" width="100" height="20" as="geometry" />
        </mxCell>
        <mxCell id="goQKcYj-rlJtsaqqlP_c-71" value="" style="endArrow=none;html=1;rounded=0;exitX=0;exitY=0;exitDx=0;exitDy=0;entryX=1;entryY=0;entryDx=0;entryDy=0;fillColor=#fff2cc;strokeColor=#d6b656;" edge="1" parent="goQKcYj-rlJtsaqqlP_c-68" source="goQKcYj-rlJtsaqqlP_c-70" target="goQKcYj-rlJtsaqqlP_c-70">
          <mxGeometry width="50" height="50" relative="1" as="geometry">
            <mxPoint x="40" y="155" as="sourcePoint" />
            <mxPoint x="90" y="105" as="targetPoint" />
          </mxGeometry>
        </mxCell>
        <mxCell id="goQKcYj-rlJtsaqqlP_c-76" value="" style="endArrow=classic;html=1;rounded=0;entryX=0;entryY=0.5;entryDx=0;entryDy=0;exitX=0.985;exitY=0.795;exitDx=0;exitDy=0;exitPerimeter=0;" edge="1" parent="1" source="goQKcYj-rlJtsaqqlP_c-61" target="goQKcYj-rlJtsaqqlP_c-64">
          <mxGeometry width="50" height="50" relative="1" as="geometry">
            <mxPoint x="570" y="770" as="sourcePoint" />
            <mxPoint x="620" y="720" as="targetPoint" />
          </mxGeometry>
        </mxCell>
        <mxCell id="goQKcYj-rlJtsaqqlP_c-84" value="Map Selection" style="edgeLabel;html=1;align=center;verticalAlign=middle;resizable=0;points=[];" vertex="1" connectable="0" parent="goQKcYj-rlJtsaqqlP_c-76">
          <mxGeometry x="-0.3635" y="-1" relative="1" as="geometry">
            <mxPoint x="13" as="offset" />
          </mxGeometry>
        </mxCell>
        <mxCell id="goQKcYj-rlJtsaqqlP_c-80" value="" style="edgeStyle=segmentEdgeStyle;endArrow=classic;html=1;curved=0;rounded=0;endSize=8;startSize=8;exitX=0.008;exitY=0.593;exitDx=0;exitDy=0;entryX=0.5;entryY=0;entryDx=0;entryDy=0;exitPerimeter=0;" edge="1" parent="1" source="goQKcYj-rlJtsaqqlP_c-62" target="goQKcYj-rlJtsaqqlP_c-63">
          <mxGeometry width="50" height="50" relative="1" as="geometry">
            <mxPoint x="750" y="770" as="sourcePoint" />
            <mxPoint x="800" y="720" as="targetPoint" />
            <Array as="points">
              <mxPoint x="811" y="750" />
              <mxPoint x="290" y="750" />
            </Array>
          </mxGeometry>
        </mxCell>
        <mxCell id="goQKcYj-rlJtsaqqlP_c-83" value="Available Maps" style="edgeLabel;html=1;align=center;verticalAlign=middle;resizable=0;points=[];" vertex="1" connectable="0" parent="goQKcYj-rlJtsaqqlP_c-80">
          <mxGeometry x="-0.2162" y="-1" relative="1" as="geometry">
            <mxPoint as="offset" />
          </mxGeometry>
        </mxCell>
        <mxCell id="goQKcYj-rlJtsaqqlP_c-85" value="" style="edgeStyle=segmentEdgeStyle;endArrow=classic;html=1;curved=0;rounded=0;endSize=8;startSize=8;exitX=0.25;exitY=0;exitDx=0;exitDy=0;entryX=0.117;entryY=1.033;entryDx=0;entryDy=0;entryPerimeter=0;" edge="1" parent="1" source="goQKcYj-rlJtsaqqlP_c-63" target="goQKcYj-rlJtsaqqlP_c-59">
          <mxGeometry width="50" height="50" relative="1" as="geometry">
            <mxPoint x="570" y="690" as="sourcePoint" />
            <mxPoint x="620" y="640" as="targetPoint" />
            <Array as="points">
              <mxPoint x="265" y="710" />
              <mxPoint x="566" y="710" />
            </Array>
          </mxGeometry>
        </mxCell>
        <mxCell id="goQKcYj-rlJtsaqqlP_c-86" value="Selected Map" style="edgeLabel;html=1;align=center;verticalAlign=middle;resizable=0;points=[];" vertex="1" connectable="0" parent="goQKcYj-rlJtsaqqlP_c-85">
          <mxGeometry x="-0.0507" relative="1" as="geometry">
            <mxPoint as="offset" />
          </mxGeometry>
        </mxCell>
        <mxCell id="goQKcYj-rlJtsaqqlP_c-87" value="" style="edgeStyle=segmentEdgeStyle;endArrow=classic;html=1;curved=0;rounded=0;endSize=8;startSize=8;exitX=0;exitY=0.5;exitDx=0;exitDy=0;entryX=0.5;entryY=0;entryDx=0;entryDy=0;" edge="1" parent="1" source="goQKcYj-rlJtsaqqlP_c-62" target="goQKcYj-rlJtsaqqlP_c-68">
          <mxGeometry width="50" height="50" relative="1" as="geometry">
            <mxPoint x="570" y="690" as="sourcePoint" />
            <mxPoint x="620" y="640" as="targetPoint" />
            <Array as="points">
              <mxPoint x="810" y="770" />
              <mxPoint x="470" y="770" />
            </Array>
          </mxGeometry>
        </mxCell>
        <mxCell id="goQKcYj-rlJtsaqqlP_c-88" value="Available Difficulties" style="edgeLabel;html=1;align=center;verticalAlign=middle;resizable=0;points=[];" vertex="1" connectable="0" parent="goQKcYj-rlJtsaqqlP_c-87">
          <mxGeometry x="-0.1861" y="1" relative="1" as="geometry">
            <mxPoint y="-1" as="offset" />
          </mxGeometry>
        </mxCell>
        <mxCell id="goQKcYj-rlJtsaqqlP_c-89" value="" style="edgeStyle=segmentEdgeStyle;endArrow=classic;html=1;curved=0;rounded=0;endSize=8;startSize=8;exitX=1;exitY=0.902;exitDx=0;exitDy=0;exitPerimeter=0;entryX=0.5;entryY=1;entryDx=0;entryDy=0;" edge="1" parent="1" source="goQKcYj-rlJtsaqqlP_c-61" target="goQKcYj-rlJtsaqqlP_c-70">
          <mxGeometry width="50" height="50" relative="1" as="geometry">
            <mxPoint x="570" y="690" as="sourcePoint" />
            <mxPoint x="620" y="640" as="targetPoint" />
            <Array as="points">
              <mxPoint x="150" y="900" />
              <mxPoint x="470" y="900" />
            </Array>
          </mxGeometry>
        </mxCell>
        <mxCell id="goQKcYj-rlJtsaqqlP_c-90" value="Difficulty Selection" style="edgeLabel;html=1;align=center;verticalAlign=middle;resizable=0;points=[];" vertex="1" connectable="0" parent="goQKcYj-rlJtsaqqlP_c-89">
          <mxGeometry x="0.4393" y="3" relative="1" as="geometry">
            <mxPoint as="offset" />
          </mxGeometry>
        </mxCell>
        <mxCell id="goQKcYj-rlJtsaqqlP_c-91" value="" style="edgeStyle=segmentEdgeStyle;endArrow=classic;html=1;curved=0;rounded=0;endSize=8;startSize=8;exitX=0.25;exitY=0;exitDx=0;exitDy=0;entryX=0.5;entryY=1;entryDx=0;entryDy=0;" edge="1" parent="1" source="goQKcYj-rlJtsaqqlP_c-68" target="goQKcYj-rlJtsaqqlP_c-59">
          <mxGeometry width="50" height="50" relative="1" as="geometry">
            <mxPoint x="570" y="690" as="sourcePoint" />
            <mxPoint x="620" y="640" as="targetPoint" />
            <Array as="points">
              <mxPoint x="445" y="730" />
              <mxPoint x="585" y="730" />
            </Array>
          </mxGeometry>
        </mxCell>
        <mxCell id="goQKcYj-rlJtsaqqlP_c-92" value="Difficulty Selection" style="edgeLabel;html=1;align=center;verticalAlign=middle;resizable=0;points=[];" vertex="1" connectable="0" parent="goQKcYj-rlJtsaqqlP_c-91">
          <mxGeometry x="0.2372" y="1" relative="1" as="geometry">
            <mxPoint as="offset" />
          </mxGeometry>
        </mxCell>
        <mxCell id="goQKcYj-rlJtsaqqlP_c-102" value="" style="rounded=0;whiteSpace=wrap;html=1;fillColor=none;" vertex="1" parent="1">
          <mxGeometry x="10" y="930" width="930" height="310" as="geometry" />
        </mxCell>
        <mxCell id="goQKcYj-rlJtsaqqlP_c-103" value="Diagram for Load Map (1.1)" style="text;html=1;align=center;verticalAlign=middle;resizable=0;points=[];autosize=1;strokeColor=none;fillColor=none;fontSize=15;" vertex="1" parent="1">
          <mxGeometry x="5" y="930" width="210" height="30" as="geometry" />
        </mxCell>
        <mxCell id="goQKcYj-rlJtsaqqlP_c-104" value="" style="rounded=0;whiteSpace=wrap;html=1;fillColor=#f5f5f5;gradientColor=#b3b3b3;strokeColor=#666666;" vertex="1" parent="1">
          <mxGeometry x="560" y="960" width="50" height="40" as="geometry" />
        </mxCell>
        <mxCell id="goQKcYj-rlJtsaqqlP_c-105" value="Current Level Data" style="text;html=1;align=center;verticalAlign=middle;whiteSpace=wrap;rounded=0;strokeColor=default;" vertex="1" parent="1">
          <mxGeometry x="610" y="960" width="150" height="40" as="geometry" />
        </mxCell>
        <mxCell id="goQKcYj-rlJtsaqqlP_c-106" value="Player" style="html=1;dashed=0;whiteSpace=wrap;" vertex="1" parent="1">
          <mxGeometry x="40" y="960" width="110" height="250" as="geometry" />
        </mxCell>
        <mxCell id="goQKcYj-rlJtsaqqlP_c-107" value="Game Save Data" style="html=1;dashed=0;whiteSpace=wrap;" vertex="1" parent="1">
          <mxGeometry x="810" y="960" width="110" height="230" as="geometry" />
        </mxCell>
        <mxCell id="goQKcYj-rlJtsaqqlP_c-108" value="1.1.2" style="swimlane;fontStyle=0;childLayout=stackLayout;horizontal=1;startSize=20;fillColor=#fff2cc;horizontalStack=0;resizeParent=1;resizeParentMax=0;resizeLast=0;collapsible=0;marginBottom=0;swimlaneFillColor=#ffffff;rounded=1;strokeColor=#d6b656;arcSize=20;" vertex="1" parent="1">
          <mxGeometry x="510" y="1120" width="100" height="80" as="geometry" />
        </mxCell>
        <mxCell id="goQKcYj-rlJtsaqqlP_c-109" value="Load Level&#39;s Background" style="text;html=1;align=center;verticalAlign=middle;whiteSpace=wrap;rounded=0;" vertex="1" parent="goQKcYj-rlJtsaqqlP_c-108">
          <mxGeometry y="20" width="100" height="40" as="geometry" />
        </mxCell>
        <mxCell id="goQKcYj-rlJtsaqqlP_c-110" value="&amp;nbsp;" style="text;html=1;align=center;verticalAlign=middle;whiteSpace=wrap;rounded=1;fillColor=#fff2cc;strokeColor=#d6b656;arcSize=13;" vertex="1" parent="goQKcYj-rlJtsaqqlP_c-108">
          <mxGeometry y="60" width="100" height="20" as="geometry" />
        </mxCell>
        <mxCell id="goQKcYj-rlJtsaqqlP_c-111" value="" style="endArrow=none;html=1;rounded=0;exitX=0;exitY=0;exitDx=0;exitDy=0;entryX=1;entryY=0;entryDx=0;entryDy=0;fillColor=#fff2cc;strokeColor=#d6b656;" edge="1" parent="goQKcYj-rlJtsaqqlP_c-108" source="goQKcYj-rlJtsaqqlP_c-110" target="goQKcYj-rlJtsaqqlP_c-110">
          <mxGeometry width="50" height="50" relative="1" as="geometry">
            <mxPoint x="40" y="155" as="sourcePoint" />
            <mxPoint x="90" y="105" as="targetPoint" />
          </mxGeometry>
        </mxCell>
        <mxCell id="goQKcYj-rlJtsaqqlP_c-112" value="1.1.3" style="swimlane;fontStyle=0;childLayout=stackLayout;horizontal=1;startSize=20;fillColor=#fff2cc;horizontalStack=0;resizeParent=1;resizeParentMax=0;resizeLast=0;collapsible=0;marginBottom=0;swimlaneFillColor=#ffffff;rounded=1;strokeColor=#d6b656;arcSize=20;" vertex="1" parent="1">
          <mxGeometry x="660" y="1120" width="100" height="80" as="geometry" />
        </mxCell>
        <mxCell id="goQKcYj-rlJtsaqqlP_c-113" value="Load Tower Placement Areas" style="text;html=1;align=center;verticalAlign=middle;whiteSpace=wrap;rounded=0;" vertex="1" parent="goQKcYj-rlJtsaqqlP_c-112">
          <mxGeometry y="20" width="100" height="40" as="geometry" />
        </mxCell>
        <mxCell id="goQKcYj-rlJtsaqqlP_c-114" value="&amp;nbsp;" style="text;html=1;align=center;verticalAlign=middle;whiteSpace=wrap;rounded=1;fillColor=#fff2cc;strokeColor=#d6b656;arcSize=13;" vertex="1" parent="goQKcYj-rlJtsaqqlP_c-112">
          <mxGeometry y="60" width="100" height="20" as="geometry" />
        </mxCell>
        <mxCell id="goQKcYj-rlJtsaqqlP_c-115" value="" style="endArrow=none;html=1;rounded=0;exitX=0;exitY=0;exitDx=0;exitDy=0;entryX=1;entryY=0;entryDx=0;entryDy=0;fillColor=#fff2cc;strokeColor=#d6b656;" edge="1" parent="goQKcYj-rlJtsaqqlP_c-112" source="goQKcYj-rlJtsaqqlP_c-114" target="goQKcYj-rlJtsaqqlP_c-114">
          <mxGeometry width="50" height="50" relative="1" as="geometry">
            <mxPoint x="40" y="155" as="sourcePoint" />
            <mxPoint x="90" y="105" as="targetPoint" />
          </mxGeometry>
        </mxCell>
        <mxCell id="goQKcYj-rlJtsaqqlP_c-116" value="" style="endArrow=classic;html=1;rounded=0;entryX=0;entryY=0.5;entryDx=0;entryDy=0;exitX=0.985;exitY=0.795;exitDx=0;exitDy=0;exitPerimeter=0;" edge="1" parent="1" source="goQKcYj-rlJtsaqqlP_c-106" target="goQKcYj-rlJtsaqqlP_c-129">
          <mxGeometry width="50" height="50" relative="1" as="geometry">
            <mxPoint x="570" y="1090" as="sourcePoint" />
            <mxPoint x="620" y="1040" as="targetPoint" />
          </mxGeometry>
        </mxCell>
        <mxCell id="goQKcYj-rlJtsaqqlP_c-117" value="Map Selection" style="edgeLabel;html=1;align=center;verticalAlign=middle;resizable=0;points=[];" vertex="1" connectable="0" parent="goQKcYj-rlJtsaqqlP_c-116">
          <mxGeometry x="-0.3635" y="-1" relative="1" as="geometry">
            <mxPoint x="16" as="offset" />
          </mxGeometry>
        </mxCell>
        <mxCell id="goQKcYj-rlJtsaqqlP_c-118" value="" style="edgeStyle=segmentEdgeStyle;endArrow=classic;html=1;curved=0;rounded=0;endSize=8;startSize=8;exitX=0.008;exitY=0.593;exitDx=0;exitDy=0;exitPerimeter=0;" edge="1" parent="1" source="goQKcYj-rlJtsaqqlP_c-107" target="goQKcYj-rlJtsaqqlP_c-128">
          <mxGeometry width="50" height="50" relative="1" as="geometry">
            <mxPoint x="750" y="1090" as="sourcePoint" />
            <mxPoint x="800" y="1040" as="targetPoint" />
            <Array as="points">
              <mxPoint x="811" y="1070" />
              <mxPoint x="260" y="1070" />
            </Array>
          </mxGeometry>
        </mxCell>
        <mxCell id="goQKcYj-rlJtsaqqlP_c-119" value="Available Maps" style="edgeLabel;html=1;align=center;verticalAlign=middle;resizable=0;points=[];" vertex="1" connectable="0" parent="goQKcYj-rlJtsaqqlP_c-118">
          <mxGeometry x="-0.2162" y="-1" relative="1" as="geometry">
            <mxPoint x="-182" as="offset" />
          </mxGeometry>
        </mxCell>
        <mxCell id="goQKcYj-rlJtsaqqlP_c-126" value="" style="edgeStyle=segmentEdgeStyle;endArrow=classic;html=1;curved=0;rounded=0;endSize=8;startSize=8;" edge="1" parent="1" source="goQKcYj-rlJtsaqqlP_c-112">
          <mxGeometry width="50" height="50" relative="1" as="geometry">
            <mxPoint x="590" y="1130" as="sourcePoint" />
            <mxPoint x="720" y="1000" as="targetPoint" />
            <Array as="points">
              <mxPoint x="720" y="999" />
            </Array>
          </mxGeometry>
        </mxCell>
        <mxCell id="goQKcYj-rlJtsaqqlP_c-127" value="Initialized Tower Areas" style="edgeLabel;html=1;align=center;verticalAlign=middle;resizable=0;points=[];" vertex="1" connectable="0" parent="goQKcYj-rlJtsaqqlP_c-126">
          <mxGeometry x="0.2372" y="1" relative="1" as="geometry">
            <mxPoint x="-3" y="-1" as="offset" />
          </mxGeometry>
        </mxCell>
        <mxCell id="goQKcYj-rlJtsaqqlP_c-128" value="1.1.1" style="swimlane;fontStyle=0;childLayout=stackLayout;horizontal=1;startSize=20;fillColor=#fff2cc;horizontalStack=0;resizeParent=1;resizeParentMax=0;resizeLast=0;collapsible=0;marginBottom=0;swimlaneFillColor=#ffffff;rounded=1;strokeColor=#d6b656;arcSize=50;" vertex="1" parent="1">
          <mxGeometry x="240" y="1120" width="100" height="80" as="geometry" />
        </mxCell>
        <mxCell id="goQKcYj-rlJtsaqqlP_c-129" value="Get Map Selection" style="text;html=1;align=center;verticalAlign=middle;whiteSpace=wrap;rounded=0;" vertex="1" parent="goQKcYj-rlJtsaqqlP_c-128">
          <mxGeometry y="20" width="100" height="40" as="geometry" />
        </mxCell>
        <mxCell id="goQKcYj-rlJtsaqqlP_c-130" value="&amp;nbsp;" style="text;html=1;align=center;verticalAlign=middle;whiteSpace=wrap;rounded=1;fillColor=#fff2cc;strokeColor=#d6b656;arcSize=13;" vertex="1" parent="goQKcYj-rlJtsaqqlP_c-128">
          <mxGeometry y="60" width="100" height="20" as="geometry" />
        </mxCell>
        <mxCell id="goQKcYj-rlJtsaqqlP_c-131" value="" style="endArrow=none;html=1;rounded=0;exitX=0;exitY=0;exitDx=0;exitDy=0;entryX=1;entryY=0;entryDx=0;entryDy=0;fillColor=#fff2cc;strokeColor=#d6b656;" edge="1" parent="goQKcYj-rlJtsaqqlP_c-128" source="goQKcYj-rlJtsaqqlP_c-130" target="goQKcYj-rlJtsaqqlP_c-130">
          <mxGeometry width="50" height="50" relative="1" as="geometry">
            <mxPoint x="40" y="155" as="sourcePoint" />
            <mxPoint x="90" y="105" as="targetPoint" />
          </mxGeometry>
        </mxCell>
        <mxCell id="goQKcYj-rlJtsaqqlP_c-136" value="" style="edgeStyle=segmentEdgeStyle;endArrow=classic;html=1;curved=0;rounded=0;endSize=8;startSize=8;exitX=1;exitY=0.5;exitDx=0;exitDy=0;entryX=0;entryY=0.5;entryDx=0;entryDy=0;" edge="1" parent="1" source="goQKcYj-rlJtsaqqlP_c-129" target="goQKcYj-rlJtsaqqlP_c-109">
          <mxGeometry width="50" height="50" relative="1" as="geometry">
            <mxPoint x="450" y="1080" as="sourcePoint" />
            <mxPoint x="500" y="1030" as="targetPoint" />
          </mxGeometry>
        </mxCell>
        <mxCell id="goQKcYj-rlJtsaqqlP_c-137" value="Background of Selected Map" style="edgeLabel;html=1;align=center;verticalAlign=middle;resizable=0;points=[];" vertex="1" connectable="0" parent="goQKcYj-rlJtsaqqlP_c-136">
          <mxGeometry x="-0.1114" relative="1" as="geometry">
            <mxPoint as="offset" />
          </mxGeometry>
        </mxCell>
        <mxCell id="goQKcYj-rlJtsaqqlP_c-138" value="" style="edgeStyle=segmentEdgeStyle;endArrow=classic;html=1;curved=0;rounded=0;endSize=8;startSize=8;exitX=0.45;exitY=0.986;exitDx=0;exitDy=0;exitPerimeter=0;entryX=0.5;entryY=1;entryDx=0;entryDy=0;" edge="1" parent="1" source="goQKcYj-rlJtsaqqlP_c-130" target="goQKcYj-rlJtsaqqlP_c-114">
          <mxGeometry width="50" height="50" relative="1" as="geometry">
            <mxPoint x="450" y="1080" as="sourcePoint" />
            <mxPoint x="500" y="1030" as="targetPoint" />
            <Array as="points">
              <mxPoint x="285" y="1220" />
              <mxPoint x="710" y="1220" />
            </Array>
          </mxGeometry>
        </mxCell>
        <mxCell id="goQKcYj-rlJtsaqqlP_c-139" value="Where Towers can be Placed" style="edgeLabel;html=1;align=center;verticalAlign=middle;resizable=0;points=[];" vertex="1" connectable="0" parent="goQKcYj-rlJtsaqqlP_c-138">
          <mxGeometry x="0.2504" y="-2" relative="1" as="geometry">
            <mxPoint x="-33" y="-2" as="offset" />
          </mxGeometry>
        </mxCell>
        <mxCell id="goQKcYj-rlJtsaqqlP_c-140" value="" style="edgeStyle=segmentEdgeStyle;endArrow=classic;html=1;curved=0;rounded=0;endSize=8;startSize=8;entryX=0;entryY=1;entryDx=0;entryDy=0;" edge="1" parent="1" target="goQKcYj-rlJtsaqqlP_c-104">
          <mxGeometry width="50" height="50" relative="1" as="geometry">
            <mxPoint x="560" y="1121" as="sourcePoint" />
            <mxPoint x="500" y="1030" as="targetPoint" />
          </mxGeometry>
        </mxCell>
        <mxCell id="goQKcYj-rlJtsaqqlP_c-141" value="Background of Selected Map" style="edgeLabel;html=1;align=center;verticalAlign=middle;resizable=0;points=[];" vertex="1" connectable="0" parent="goQKcYj-rlJtsaqqlP_c-140">
          <mxGeometry x="0.1736" y="1" relative="1" as="geometry">
            <mxPoint as="offset" />
          </mxGeometry>
        </mxCell>
      </root>
    </mxGraphModel>
  </diagram>
</mxfile>
